<?xml version="1.0" encoding="utf-8"?>
<!-- Generator: Adobe Illustrator 19.1.0, SVG Export Plug-In . SVG Version: 6.00 Build 0)  -->
<svg version="1.1" id="Layer_1" xmlns="http://www.w3.org/2000/svg" xmlns:xlink="http://www.w3.org/1999/xlink" x="0px" y="0px"
	 viewBox="0 0 41.4 41.4" style="enable-background:new 0 0 41.4 41.4;" xml:space="preserve">
<g>
	<g>
		<path d="M32.7,34.7c-0.5,0-1-0.2-1.4-0.6l-24-24c-0.8-0.8-0.8-2,0-2.8c0.8-0.8,2-0.8,2.8,0l24,24c0.8,0.8,0.8,2,0,2.8
			C33.7,34.5,33.2,34.7,32.7,34.7z"/>
	</g>
	<g>
		<path d="M8.7,34.7c-0.5,0-1-0.2-1.4-0.6c-0.8-0.8-0.8-2,0-2.8l24-24c0.8-0.8,2-0.8,2.8,0c0.8,0.8,0.8,2,0,2.8l-24,24
			C9.7,34.5,9.2,34.7,8.7,34.7z"/>
	</g>
</g>
</svg>
